<svg width="30" height="32" viewBox="0 0 30 32" fill="none" xmlns="http://www.w3.org/2000/svg">
<path d="M29.8607 8.77313C29.4751 9.10312 29.0777 9.41347 28.6685 9.70418C28.2592 9.98704 27.8185 10.2502 27.3464 10.4938C26.8821 10.7374 26.3784 10.9574 25.8354 11.1538C25.2924 11.3502 24.6904 11.527 24.0293 11.6841C24.0293 11.637 24.0293 11.5938 24.0293 11.5545C24.0293 11.5074 24.0372 11.4524 24.0529 11.3895C24.0766 11.2795 24.1198 11.1852 24.1828 11.1067C24.2458 11.0202 24.3481 10.9574 24.4897 10.9181C24.9383 10.7924 25.3475 10.6627 25.7174 10.5292C26.0872 10.3877 26.4374 10.2424 26.768 10.0931C27.0985 9.93597 27.4211 9.76311 27.7359 9.57454C28.0507 9.37812 28.3734 9.15812 28.7039 8.91456C29.0423 8.67099 29.4043 8.39599 29.7899 8.08957L29.4121 8.66706L29.5538 7.91279L29.7073 8.53742C29.3925 8.16814 29.0856 7.84993 28.7865 7.58279C28.4875 7.3078 28.1766 7.07209 27.854 6.87566C27.5313 6.67138 27.1772 6.48674 26.7916 6.32174C26.406 6.15675 25.9692 5.99568 25.4813 5.83854C25.3554 5.79925 25.2767 5.74425 25.2452 5.67354C25.2137 5.59497 25.2058 5.51247 25.2216 5.42605C25.2373 5.3789 25.2491 5.33569 25.257 5.29641C25.2727 5.24926 25.2885 5.20605 25.3042 5.16676C26.0597 5.37105 26.705 5.5989 27.2401 5.85032C27.7831 6.10175 28.2514 6.38067 28.6449 6.68709C29.0462 6.99352 29.4161 7.3353 29.7545 7.71243C29.8174 7.78315 29.8686 7.84993 29.9079 7.91279C29.9551 7.97564 29.9827 8.04243 29.9906 8.11314C30.0063 8.18385 30.0024 8.27421 29.9788 8.38421C29.963 8.46278 29.9433 8.53349 29.9197 8.59635C29.904 8.65135 29.8843 8.71027 29.8607 8.77313Z" fill="#C6D0F5"/>
<path d="M8.22799 20.2664C8.65295 19.8798 9.10152 19.5121 9.57369 19.1632C10.0553 18.8144 10.57 18.4938 11.1177 18.2015C11.6749 17.9093 12.2745 17.6453 12.9167 17.4095C13.5683 17.1644 14.2718 16.9523 15.0273 16.7731C15.0368 16.8203 15.0415 16.8721 15.0415 16.9287C15.0415 16.9853 15.0368 17.0466 15.0273 17.1126C15.0084 17.2351 14.9612 17.3483 14.8857 17.452C14.8196 17.5557 14.7062 17.6311 14.5457 17.6783C14.0263 17.8291 13.5447 17.9847 13.1008 18.145C12.6664 18.3052 12.2556 18.4797 11.8685 18.6682C11.4813 18.8568 11.1035 19.0689 10.7352 19.3047C10.3669 19.5309 9.98449 19.7902 9.58786 20.0825C9.20067 20.3654 8.78516 20.6906 8.34131 21.0583L8.76627 20.3512L8.63879 21.2563L8.41214 20.5068C8.82766 20.9593 9.22428 21.3506 9.60202 21.6806C9.97976 22.0106 10.3669 22.2982 10.7636 22.5433C11.1602 22.7885 11.5946 23.01 12.0668 23.208C12.539 23.406 13.0772 23.5946 13.6816 23.7737C13.8327 23.8209 13.9271 23.8916 13.9649 23.9859C14.0027 24.0801 14.0169 24.1791 14.0074 24.2829C13.998 24.3394 13.9838 24.396 13.9649 24.4526C13.9555 24.4997 13.9413 24.5468 13.9224 24.594C13.0159 24.3489 12.2273 24.0754 11.5568 23.7737C10.8958 23.472 10.315 23.1373 9.8145 22.7696C9.314 22.4019 8.84654 21.9918 8.41214 21.5392C8.33659 21.4449 8.27049 21.3648 8.21383 21.2988C8.15717 21.2233 8.11939 21.1432 8.10051 21.0583C8.09106 20.9735 8.09106 20.8651 8.10051 20.7331C8.11939 20.6388 8.13828 20.5586 8.15717 20.4926C8.17605 20.4172 8.19966 20.3418 8.22799 20.2664Z" fill="#C6D0F5"/>
<path d="M5.63575 32C5.29578 32 5.0172 31.9387 4.8 31.8161C4.59224 31.6936 4.42698 31.538 4.30422 31.3494C4.19089 31.1514 4.09174 30.944 4.00675 30.7272C3.9312 30.5103 3.85565 30.3029 3.7801 30.1049C3.70455 29.8975 3.6054 29.723 3.48263 29.5816C3.36931 29.4308 3.20877 29.3412 3.00101 29.3129C2.70826 29.3506 2.46273 29.4873 2.26442 29.723C2.07555 29.9493 1.91973 30.2982 1.79696 30.7696C1.75919 30.9393 1.73086 31.0996 1.71197 31.2504C1.70253 31.3919 1.70725 31.5333 1.72614 31.6747L1.71197 31.7879C1.61754 31.8256 1.51838 31.8491 1.4145 31.8586C1.32007 31.868 1.22091 31.8727 1.11703 31.8727C0.899831 31.8727 0.748735 31.7784 0.663744 31.5899C0.578752 31.3919 0.57403 31.1184 0.649578 30.7696L0.720405 30.5009C0.852614 29.9823 1.03204 29.558 1.25868 29.228C1.48533 28.8886 1.75447 28.6341 2.0661 28.4643C2.37774 28.2946 2.71771 28.2098 3.086 28.2098C3.42597 28.2098 3.69983 28.2711 3.90759 28.3936C4.11535 28.5162 4.28061 28.6765 4.40337 28.8745C4.52614 29.0631 4.6253 29.2658 4.70084 29.4826C4.77639 29.6995 4.85194 29.9116 4.92749 30.119C5.00304 30.317 5.09747 30.4867 5.21079 30.6282C5.33356 30.7696 5.49882 30.8592 5.70658 30.8969C5.99933 30.8592 6.24013 30.7272 6.429 30.5009C6.62732 30.2652 6.78786 29.9116 6.91062 29.4402C6.95784 29.2705 6.98617 29.1149 6.99562 28.9735C7.00506 28.8226 7.00034 28.6765 6.98145 28.5351L6.99562 28.4219C7.09949 28.3842 7.19865 28.3606 7.29309 28.3512C7.39696 28.3418 7.49612 28.3371 7.59056 28.3371C7.8172 28.3371 7.97302 28.4361 8.05801 28.6341C8.143 28.8226 8.143 29.0913 8.05801 29.4402L7.98718 29.7089C7.85497 30.218 7.67555 30.6423 7.4489 30.9817C7.22226 31.3212 6.95312 31.5757 6.64148 31.7454C6.33929 31.9151 6.00405 32 5.63575 32Z" fill="#8CAAEE"/>
<path d="M14.1294 32C13.7894 32 13.5108 31.9387 13.2936 31.8161C13.0859 31.6936 12.9206 31.538 12.7978 31.3494C12.6845 31.1514 12.5854 30.944 12.5004 30.7272C12.4248 30.5103 12.3493 30.3029 12.2737 30.1049C12.1982 29.8975 12.099 29.723 11.9763 29.5816C11.8629 29.4308 11.7024 29.3412 11.4946 29.3129C11.2019 29.3506 10.9564 29.4873 10.758 29.723C10.5692 29.9493 10.4134 30.2982 10.2906 30.7696C10.2528 30.9393 10.2245 31.0996 10.2056 31.2504C10.1962 31.3919 10.2009 31.5333 10.2198 31.6747L10.2056 31.7879C10.1112 31.8256 10.012 31.8491 9.90813 31.8586C9.81369 31.868 9.71453 31.8727 9.61065 31.8727C9.39345 31.8727 9.24236 31.7784 9.15737 31.5899C9.07237 31.3919 9.06765 31.1184 9.1432 30.7696L9.21403 30.5009C9.34624 29.9823 9.52566 29.558 9.75231 29.228C9.97895 28.8886 10.2481 28.6341 10.5597 28.4643C10.8714 28.2946 11.2113 28.2098 11.5796 28.2098C11.9196 28.2098 12.1935 28.2711 12.4012 28.3936C12.609 28.5162 12.7742 28.6765 12.897 28.8745C13.0198 29.0631 13.1189 29.2658 13.1945 29.4826C13.27 29.6995 13.3456 29.9116 13.4211 30.119C13.4967 30.317 13.5911 30.4867 13.7044 30.6282C13.8272 30.7696 13.9924 30.8592 14.2002 30.8969C14.4929 30.8592 14.7338 30.7272 14.9226 30.5009C15.1209 30.2652 15.2815 29.9116 15.4042 29.4402C15.4515 29.2705 15.4798 29.1149 15.4892 28.9735C15.4987 28.8226 15.494 28.6765 15.4751 28.5351L15.4892 28.4219C15.5931 28.3842 15.6923 28.3606 15.7867 28.3512C15.8906 28.3418 15.9897 28.3371 16.0842 28.3371C16.3108 28.3371 16.4666 28.4361 16.5516 28.6341C16.6366 28.8226 16.6366 29.0913 16.5516 29.4402L16.4808 29.7089C16.3486 30.218 16.1692 30.6423 15.9425 30.9817C15.7159 31.3212 15.4467 31.5757 15.1351 31.7454C14.8329 31.9151 14.4977 32 14.1294 32Z" fill="#8CAAEE"/>
<path d="M22.623 32C22.283 32 22.0044 31.9387 21.7872 31.8161C21.5795 31.6936 21.4142 31.538 21.2915 31.3494C21.1781 31.1514 21.079 30.944 20.994 30.7272C20.9184 30.5103 20.8429 30.3029 20.7673 30.1049C20.6918 29.8975 20.5926 29.723 20.4699 29.5816C20.3566 29.4308 20.196 29.3412 19.9883 29.3129C19.6955 29.3506 19.45 29.4873 19.2517 29.723C19.0628 29.9493 18.907 30.2982 18.7842 30.7696C18.7464 30.9393 18.7181 31.0996 18.6992 31.2504C18.6898 31.3919 18.6945 31.5333 18.7134 31.6747L18.6992 31.7879C18.6048 31.8256 18.5056 31.8491 18.4017 31.8586C18.3073 31.868 18.2082 31.8727 18.1043 31.8727C17.8871 31.8727 17.736 31.7784 17.651 31.5899C17.566 31.3919 17.5613 31.1184 17.6368 30.7696L17.7077 30.5009C17.8399 29.9823 18.0193 29.558 18.2459 29.228C18.4726 28.8886 18.7417 28.6341 19.0534 28.4643C19.365 28.2946 19.705 28.2098 20.0733 28.2098C20.4132 28.2098 20.6871 28.2711 20.8948 28.3936C21.1026 28.5162 21.2679 28.6765 21.3906 28.8745C21.5134 29.0631 21.6125 29.2658 21.6881 29.4826C21.7636 29.6995 21.8392 29.9116 21.9147 30.119C21.9903 30.317 22.0847 30.4867 22.198 30.6282C22.3208 30.7696 22.4861 30.8592 22.6938 30.8969C22.9866 30.8592 23.2274 30.7272 23.4163 30.5009C23.6146 30.2652 23.7751 29.9116 23.8979 29.4402C23.9451 29.2705 23.9734 29.1149 23.9829 28.9735C23.9923 28.8226 23.9876 28.6765 23.9687 28.5351L23.9829 28.4219C24.0867 28.3842 24.1859 28.3606 24.2803 28.3512C24.3842 28.3418 24.4834 28.3371 24.5778 28.3371C24.8044 28.3371 24.9603 28.4361 25.0453 28.6341C25.1302 28.8226 25.1302 29.0913 25.0453 29.4402L24.9744 29.7089C24.8422 30.218 24.6628 30.6423 24.4361 30.9817C24.2095 31.3212 23.9404 31.5757 23.6287 31.7454C23.3265 31.9151 22.9913 32 22.623 32Z" fill="#8CAAEE"/>
<path d="M23.0118 12.7991C22.9457 12.8651 22.8749 12.9122 22.7993 12.9405C22.7332 12.9782 22.6577 12.9971 22.5727 12.9971C22.4499 12.9971 22.3319 12.9923 22.2185 12.9829C22.1052 12.9735 21.9966 12.9593 21.8927 12.9405C21.7889 12.9311 21.685 12.9169 21.5811 12.8981V12.7425C22.1855 12.1768 22.686 11.5639 23.0826 10.9039C23.4793 10.2534 23.7767 9.5604 23.975 8.82499C24.1734 8.08957 24.2725 7.32587 24.2725 6.53388V6.44903C24.2725 5.64761 24.1734 4.88391 23.975 4.15793C23.7767 3.43194 23.4745 2.74367 23.0685 2.09311C22.6718 1.43312 22.1713 0.820271 21.5669 0.254567V0.0989978C21.6803 0.0801412 21.7889 0.0659988 21.8927 0.0565705C21.9966 0.0377134 22.1052 0.0235707 22.2185 0.0141424C22.3319 0.00471414 22.4499 0 22.5727 0C22.6577 0 22.7332 0.0141424 22.7993 0.0424273C22.8749 0.0707127 22.9457 0.122569 23.0118 0.197996C23.5595 0.744844 24.0175 1.34826 24.3858 2.00825C24.7636 2.66824 25.0422 3.37065 25.2216 4.1155C25.401 4.86034 25.4907 5.63347 25.4907 6.43489V6.53388C25.4907 7.34473 25.401 8.12257 25.2216 8.86741C25.0422 9.61226 24.7636 10.3147 24.3858 10.9747C24.0175 11.6346 23.5595 12.2428 23.0118 12.7991Z" fill="#E5C890"/>
<path d="M22.941 26.8992C22.9126 26.9369 22.8702 26.9652 22.8135 26.9841C22.7663 27.0029 22.7143 27.0124 22.6577 27.0124C22.5444 27.0124 22.4263 27.0124 22.3035 27.0124C22.1808 27.0124 22.058 27.0124 21.9352 27.0124C21.8219 27.0124 21.7039 27.0124 21.5811 27.0124V26.8144C22.1761 26.2581 22.6718 25.65 23.0685 24.99C23.4651 24.3394 23.7626 23.6511 23.9609 22.9252C24.1686 22.1992 24.2725 21.4402 24.2725 20.6482V20.5492C24.2725 19.7666 24.1686 19.0171 23.9609 18.3005C23.7626 17.5745 23.4604 16.8863 23.0543 16.2357C22.6577 15.5851 22.1572 14.977 21.5528 14.4113V14.2133C21.685 14.2133 21.8125 14.2133 21.9352 14.2133C22.058 14.2133 22.1761 14.2133 22.2894 14.2133C22.4121 14.2133 22.5349 14.2133 22.6577 14.2133C22.7143 14.2133 22.7663 14.2227 22.8135 14.2416C22.8702 14.251 22.9126 14.2793 22.941 14.3265C23.5076 14.8827 23.975 15.4956 24.3433 16.165C24.7211 16.825 24.9997 17.5227 25.1791 18.2581C25.3585 18.9935 25.4482 19.7572 25.4482 20.5492V20.6482C25.4482 21.4402 25.3585 22.2086 25.1791 22.9534C24.9997 23.6889 24.7211 24.3866 24.3433 25.0466C23.975 25.716 23.5076 26.3335 22.941 26.8992Z" fill="#E5C890"/>
<path d="M14.2105 0.212139C14.2671 0.164997 14.3191 0.136712 14.3663 0.127283C14.4229 0.108426 14.4796 0.0989978 14.5363 0.0989978C14.7062 0.0989978 14.8762 0.0989978 15.0462 0.0989978C15.2256 0.0989978 15.4098 0.0989978 15.5987 0.0989978C15.7875 0.0989978 15.9717 0.0989978 16.1511 0.0989978L16.1228 0.32528C15.4145 0.881556 14.8007 1.47555 14.2813 2.10725C13.7619 2.72952 13.3417 3.3848 13.0206 4.07307C12.6995 4.75192 12.4823 5.45905 12.369 6.19446L12.3265 6.42074C12.2037 7.17501 12.1848 7.91514 12.2698 8.64113C12.3548 9.35769 12.539 10.0412 12.8223 10.6918C13.1056 11.3424 13.488 11.9364 13.9696 12.4738L13.9271 12.7001C13.7477 12.7001 13.5777 12.7001 13.4172 12.7001C13.2661 12.7001 13.1197 12.7001 12.9781 12.7001C12.8364 12.7001 12.6759 12.7001 12.4965 12.7001C12.4398 12.7001 12.3879 12.6906 12.3406 12.6718C12.3029 12.6623 12.2651 12.6341 12.2273 12.5869C11.7835 12.0589 11.4293 11.4602 11.1649 10.7908C10.9099 10.1214 10.7447 9.41426 10.6691 8.66942C10.5936 7.92457 10.6172 7.17501 10.74 6.42074L10.7825 6.19446C10.8958 5.45905 11.0988 4.73777 11.3916 4.03064C11.6938 3.31408 12.0762 2.63524 12.539 1.99411C13.0111 1.34355 13.5683 0.749558 14.2105 0.212139Z" fill="#E5C890"/>
<path d="M3.82732 14.3689C3.9312 14.2935 4.02563 14.2416 4.11062 14.2133C4.19562 14.1756 4.29005 14.1567 4.39393 14.1567C4.53558 14.1567 4.67723 14.1662 4.81889 14.185C4.96054 14.1945 5.10219 14.2086 5.24384 14.2275C5.3855 14.2463 5.51771 14.2652 5.64047 14.284L5.59798 14.4537C4.88027 15.01 4.25228 15.604 3.714 16.2357C3.17572 16.8674 2.73187 17.5321 2.38246 18.2298C2.03305 18.9275 1.78752 19.6535 1.64587 20.4078L1.60337 20.6058C1.45228 21.3883 1.40034 22.152 1.44755 22.8969C1.50422 23.6417 1.66003 24.3441 1.91501 25.0041C2.16998 25.6641 2.52411 26.2628 2.9774 26.8002L2.93491 26.9699C2.81214 26.9888 2.68938 27.0029 2.56661 27.0124C2.45329 27.0312 2.33997 27.0454 2.22664 27.0548C2.11332 27.0642 1.98583 27.0689 1.84418 27.0689C1.74975 27.0689 1.66476 27.0501 1.58921 27.0124C1.5231 26.9747 1.457 26.9181 1.39089 26.8427C0.984823 26.3241 0.663744 25.7301 0.427656 25.0607C0.201012 24.3913 0.064081 23.6747 0.0168635 22.911C-0.0303542 22.1473 0.0215851 21.3789 0.172681 20.6058L0.215177 20.3936C0.366273 19.6299 0.602361 18.8851 0.92344 18.1591C1.25396 17.4331 1.66003 16.7496 2.14165 16.1084C2.63271 15.4579 3.1946 14.878 3.82732 14.3689Z" fill="#E5C890"/>
<path d="M22.3767 7.18209C22.2823 7.21351 22.1839 7.24101 22.0816 7.26458C21.9872 7.2803 21.8888 7.29601 21.7865 7.31173C21.6921 7.32744 21.5937 7.33923 21.4914 7.34708C21.3891 7.35494 21.2907 7.35887 21.1963 7.35887C20.7871 7.35887 20.4802 7.29208 20.2755 7.15852C20.0788 7.01709 19.9962 6.81674 20.0277 6.55745L20.1693 4.95463C20.2637 4.9232 20.3582 4.89963 20.4526 4.88391C20.547 4.86034 20.6454 4.8407 20.7477 4.82499C20.85 4.80927 20.9484 4.79749 21.0428 4.78963C21.1451 4.78177 21.2435 4.77784 21.3379 4.77784C21.7629 4.77784 22.0698 4.84463 22.2587 4.9782C22.4554 5.10391 22.5381 5.30033 22.5066 5.56747L22.3767 7.18209Z" fill="#C6D0F5"/>
</svg>
